<?xml version="1.0" encoding="UTF-8" standalone="no"?>
<!DOCTYPE svg PUBLIC "-//W3C//DTD SVG 1.1//EN" "http://www.w3.org/Graphics/SVG/1.1/DTD/svg11.dtd">
<svg xmlns="http://www.w3.org/2000/svg" version="1.1" viewBox="0 0 1920 1080">
<path stroke="#215d1e" stroke-width="2.00" fill="none" stroke-linecap="butt" vector-effect="non-scaling-stroke" d="
  M 1920.00 411.56
  Q 1759.45 279.98 1598.79 148.53
  C 1597.76 147.69 1596.96 146.41 1595.29 146.00"
/>
<path fill="#3e723b" d="
  M 1418.06 0.00
  L 1920.00 0.00
  L 1920.00 411.56
  Q 1759.45 279.98 1598.79 148.53
  C 1597.76 147.69 1596.96 146.41 1595.29 146.00
  Q 1594.55 145.10 1593.64 144.36
  Q 1505.81 72.41 1417.96 0.48
  A 0.23 0.19 -54.5 0 1 1417.94 0.19
  L 1418.06 0.00
  Z"
/>
<path fill="#044700" d="
  M 1595.29 146.00
  C 1596.96 146.41 1597.76 147.69 1598.79 148.53
  Q 1759.45 279.98 1920.00 411.56
  L 1920.00 1080.00
  L 863.44 1080.00
  L 863.37 1079.74
  A 0.67 0.65 -33.4 0 1 863.49 1079.19
  L 1595.29 146.00
  Z"
/>
<path fill="#044700" d="
  M 0.07 929.85
  L 0.00 924.94
  L 0.23 924.73
  A 0.64 0.63 45.3 0 1 1.09 924.74
  Q 4.63 928.07 0.07 929.85
  Z"
/>
<circle fill="#044700" cx="30.66" cy="927.23" r="2.87"/>
<circle fill="#044700" cx="61.61" cy="927.22" r="2.87"/>
<circle fill="#044700" cx="92.56" cy="927.22" r="2.87"/>
<circle fill="#044700" cx="123.47" cy="927.23" r="2.87"/>
<circle fill="#044700" cx="154.44" cy="927.23" r="2.86"/>
<circle fill="#044700" cx="185.35" cy="927.22" r="2.87"/>
<circle fill="#044700" cx="216.32" cy="927.22" r="2.87"/>
<circle fill="#044700" cx="247.21" cy="927.22" r="2.86"/>
<path fill="#044700" d="
  M 0.06 959.82
  L 0.00 954.69
  L 0.19 954.52
  A 0.64 0.64 0.0 0 1 1.04 954.53
  Q 4.78 957.91 0.06 959.82
  Z"
/>
<circle fill="#044700" cx="30.65" cy="957.11" r="2.86"/>
<circle fill="#044700" cx="61.63" cy="957.11" r="2.87"/>
<circle fill="#044700" cx="92.56" cy="957.13" r="2.87"/>
<circle fill="#044700" cx="123.50" cy="957.12" r="2.85"/>
<circle fill="#044700" cx="154.44" cy="957.11" r="2.87"/>
<circle fill="#044700" cx="185.36" cy="957.12" r="2.87"/>
<circle fill="#044700" cx="216.32" cy="957.12" r="2.86"/>
<circle fill="#044700" cx="247.19" cy="957.12" r="2.86"/>
<path fill="#044700" d="
  M 0.06 989.82
  L 0.00 984.69
  L 0.19 984.52
  A 0.64 0.64 0.0 0 1 1.04 984.53
  Q 4.78 987.91 0.06 989.82
  Z"
/>
<circle fill="#044700" cx="30.65" cy="987.11" r="2.87"/>
<circle fill="#044700" cx="61.61" cy="987.12" r="2.87"/>
<circle fill="#044700" cx="92.54" cy="987.12" r="2.86"/>
<circle fill="#044700" cx="123.49" cy="987.12" r="2.85"/>
<circle fill="#044700" cx="154.45" cy="987.11" r="2.87"/>
<circle fill="#044700" cx="185.35" cy="987.12" r="2.86"/>
<circle fill="#044700" cx="216.27" cy="987.11" r="2.85"/>
<circle fill="#044700" cx="247.20" cy="987.11" r="2.86"/>
<circle fill="#044700" cx="247.19" cy="1017.06" r="2.87"/>
<path fill="#044700" d="
  M 0.00 1019.69
  L 0.00 1014.44
  C 2.71 1013.84 4.02 1019.03 0.00 1019.69
  Z"
/>
<circle fill="#044700" cx="30.66" cy="1017.05" r="2.89"/>
<circle fill="#044700" cx="61.61" cy="1017.03" r="2.86"/>
<circle fill="#044700" cx="92.56" cy="1017.03" r="2.86"/>
<circle fill="#044700" cx="123.48" cy="1017.02" r="2.85"/>
<circle fill="#044700" cx="154.46" cy="1017.06" r="2.87"/>
<circle fill="#044700" cx="185.36" cy="1017.03" r="2.86"/>
<circle fill="#044700" cx="216.31" cy="1017.03" r="2.86"/>
<path fill="#044700" d="
  M 0.07 1049.81
  L 0.08 1044.26
  Q 5.34 1047.02 0.07 1049.81
  Z"
/>
<circle fill="#044700" cx="30.65" cy="1046.99" r="2.89"/>
<circle fill="#044700" cx="61.61" cy="1046.99" r="2.89"/>
<circle fill="#044700" cx="92.55" cy="1046.99" r="2.89"/>
<circle fill="#044700" cx="123.48" cy="1046.97" r="2.87"/>
<circle fill="#044700" cx="154.43" cy="1046.98" r="2.88"/>
<circle fill="#044700" cx="185.35" cy="1046.99" r="2.88"/>
<circle fill="#044700" cx="216.30" cy="1046.99" r="2.87"/>
<circle fill="#044700" cx="247.20" cy="1046.97" r="2.88"/>
<path fill="#044700" d="
  M 0.00 1079.44
  L 0.05 1074.09
  Q 4.79 1076.26 1.01 1079.58
  A 0.65 0.65 0.0 0 1 0.34 1079.69
  Q 0.14 1079.61 0.00 1079.44
  Z"
/>
<circle fill="#044700" cx="30.65" cy="1076.93" r="2.87"/>
<circle fill="#044700" cx="61.61" cy="1076.94" r="2.87"/>
<circle fill="#044700" cx="92.56" cy="1076.93" r="2.86"/>
<circle fill="#044700" cx="123.46" cy="1076.91" r="2.85"/>
<circle fill="#044700" cx="154.43" cy="1076.93" r="2.86"/>
<circle fill="#044700" cx="185.35" cy="1076.94" r="2.86"/>
<circle fill="#044700" cx="216.31" cy="1076.93" r="2.86"/>
<circle fill="#044700" cx="247.20" cy="1076.90" r="2.87"/>
</svg>
