<?xml version="1.0" encoding="UTF-8" standalone="no"?>
<!DOCTYPE svg PUBLIC "-//W3C//DTD SVG 1.1//EN" "http://www.w3.org/Graphics/SVG/1.1/DTD/svg11.dtd">
<svg xmlns="http://www.w3.org/2000/svg" version="1.1" viewBox="0 0 1920 1080">
<g stroke-width="2.00" fill="none" stroke-linecap="butt">
<path stroke="#55867c" vector-effect="non-scaling-stroke" d="
  M 1084.31 0.00
  L 1082.03 0.38
  Q 1081.61 0.45 1082.01 0.57
  Q 1083.22 0.93 1084.44 1.24
  Q 1431.24 90.28 1778.01 179.48
  Q 1781.16 180.29 1784.25 181.29"
/>
<path stroke="#206255" vector-effect="non-scaling-stroke" d="
  M 1784.25 181.29
  L 1784.25 181.64
  A 0.87 0.85 68.0 0 1 1784.00 182.25
  L 1573.75 392.71"
/>
<path stroke="#206255" vector-effect="non-scaling-stroke" d="
  M 1573.75 392.71
  L 1451.08 515.31
  A 0.95 0.94 -45.2 0 0 1451.08 516.64
  L 1546.45 611.63"
/>
<path stroke="#55867c" vector-effect="non-scaling-stroke" d="
  M 1546.45 611.63
  C 1545.88 612.22 1545.35 613.16 1544.78 613.73
  Q 1505.03 652.72 1466.15 692.57
  Q 1465.80 692.93 1466.16 692.58
  Q 1505.91 654.10 1544.61 614.56
  C 1545.30 613.87 1546.48 613.25 1547.25 612.46"
/>
<path stroke="#206255" vector-effect="non-scaling-stroke" d="
  M 1547.25 612.46
  Q 1615.17 681.33 1684.00 749.29"
/>
<path stroke="#40796e" vector-effect="non-scaling-stroke" d="
  M 1684.00 749.29
  Q 1683.92 749.86 1683.52 750.27
  Q 1656.38 777.49 1629.42 804.46
  A 0.76 0.76 0.0 0 0 1629.42 805.54
  L 1831.59 1007.72
  Q 1832.01 1008.14 1832.01 1007.55
  L 1832.04 898.00"
/>
<path stroke="#206255" vector-effect="non-scaling-stroke" d="
  M 1832.04 898.00
  C 1833.14 897.90 1910.34 975.83 1918.06 983.48
  Q 1918.49 983.91 1918.49 983.30
  L 1918.46 734.00"
/>
<path stroke="#206255" vector-effect="non-scaling-stroke" d="
  M 1918.46 734.00
  Q 1918.45 475.53 1918.59 217.06
  Q 1918.59 216.43 1918.75 215.79"
/>
<path stroke="#55867c" vector-effect="non-scaling-stroke" d="
  M 1918.75 215.79
  L 1920.00 215.81"
/>
<path stroke="#40796e" vector-effect="non-scaling-stroke" d="
  M 1671.80 1080.12
  Q 1699.41 1054.39 1725.63 1027.52
  A 0.91 0.91 0.0 0 0 1725.62 1026.24
  L 1690.45 991.14
  Q 1689.75 990.44 1689.75 991.43
  L 1689.75 1059.83
  Q 1689.75 1061.81 1688.35 1063.21
  L 1671.44 1080.00"
/>
<path stroke="#55867c" vector-effect="non-scaling-stroke" d="
  M 935.19 1080.00
  L 936.27 1079.65
  Q 936.75 1079.50 936.26 1079.38
  L 0.00 838.69"
/>
<path stroke="#55867c" vector-effect="non-scaling-stroke" d="
  M 1413.25 857.54
  Q 1458.60 903.55 1504.44 949.06
  Q 1505.44 950.06 1506.25 951.71"
/>
<path stroke="#206255" vector-effect="non-scaling-stroke" d="
  M 1506.25 951.71
  L 1505.87 952.40
  Q 1505.63 952.83 1505.63 953.33
  Q 1505.38 1008.34 1505.54 1063.34
  C 1505.54 1064.04 1505.90 1064.98 1505.82 1065.69
  Q 1505.73 1066.62 1506.38 1065.96
  L 1564.06 1008.62"
/>
<path stroke="#55867c" vector-effect="non-scaling-stroke" d="
  M 1564.06 1008.62
  L 1581.16 1025.71
  A 0.47 0.46 40.1 0 0 1581.86 1025.66
  C 1582.19 1025.21 1581.94 1024.35 1581.49 1023.93
  Q 1572.95 1015.86 1564.96 1007.25"
/>
<path stroke="#206255" vector-effect="non-scaling-stroke" d="
  M 1564.96 1007.25
  L 1636.27 936.05
  A 0.44 0.44 0.0 0 0 1636.27 935.43
  L 1506.19 805.39
  Q 1505.70 804.91 1505.74 805.59
  C 1505.89 808.24 1505.49 811.15 1505.50 813.46
  Q 1505.52 880.38 1505.48 947.31
  A 0.19 0.19 0.0 0 1 1505.37 947.48
  L 1505.25 947.54"
/>
<path stroke="#55867c" vector-effect="non-scaling-stroke" d="
  M 1505.25 947.54
  Q 1461.87 904.40 1418.57 861.18
  Q 1416.75 859.35 1415.00 857.46"
/>
<path stroke="#40796e" vector-effect="non-scaling-stroke" d="
  M 1415.00 857.46
  C 1412.37 854.04 1413.46 851.48 1413.47 847.74
  Q 1413.66 798.55 1413.27 749.64
  Q 1413.26 748.86 1412.71 749.41
  L 1359.16 802.97
  A 0.69 0.69 0.0 0 0 1359.16 803.95
  Q 1383.63 828.53 1408.32 853.18
  Q 1409.86 854.72 1413.25 857.54"
/>
<path stroke="#85a7a1" vector-effect="non-scaling-stroke" d="
  M 1415.00 857.46
  L 1413.25 857.54"
/>
<path stroke="#649088" vector-effect="non-scaling-stroke" d="
  M 1564.06 1008.62
  Q 1536.12 980.69 1507.78 952.47
  Q 1507.13 951.82 1506.25 951.71"
/>
<path stroke="#649088" vector-effect="non-scaling-stroke" d="
  M 1564.96 1007.25
  Q 1534.72 977.78 1505.25 947.54"
/>
<path stroke="#649088" vector-effect="non-scaling-stroke" d="
  M 1918.75 215.79
  L 1784.25 181.29"
/>
<path stroke="#2f6c60" vector-effect="non-scaling-stroke" d="
  M 1918.46 734.00
  Q 1918.30 734.09 1918.25 734.20
  A 0.10 0.10 0.0 0 1 1918.09 734.23
  Q 1908.66 725.57 1899.70 716.43
  C 1878.77 695.07 1857.55 674.00 1836.50 652.75
  Q 1835.28 651.52 1833.96 652.82
  Q 1833.37 653.40 1833.29 652.57
  L 1833.22 651.73
  Q 1833.19 651.39 1833.09 651.71
  L 1833.02 651.97
  Q 1832.77 652.80 1832.74 651.93
  L 1832.02 635.25"
/>
<path stroke="#649088" vector-effect="non-scaling-stroke" d="
  M 1832.02 635.25
  L 1832.00 602.75
  Q 1832.00 601.84 1831.36 602.48
  L 1684.50 749.29"
/>
<path stroke="#508379" vector-effect="non-scaling-stroke" d="
  M 1684.50 749.29
  L 1684.00 749.29"
/>
<path stroke="#649088" vector-effect="non-scaling-stroke" d="
  M 1547.25 612.46
  C 1547.38 612.28 1547.47 612.02 1547.61 611.88
  Q 1616.47 543.22 1687.88 471.82
  A 0.76 0.76 0.0 0 0 1687.61 470.58
  C 1687.45 470.52 1675.33 482.42 1674.01 483.61"
/>
<path stroke="#2f6c60" vector-effect="non-scaling-stroke" d="
  M 1674.01 483.61
  L 1669.73 485.49
  A 0.69 0.68 56.6 0 1 1668.96 485.33
  Q 1667.58 483.82 1662.71 479.04
  Q 1649.85 466.43 1597.45 413.55
  Q 1589.89 405.93 1582.18 398.44
  C 1579.83 396.15 1577.55 390.72 1573.75 392.71"
/>
<path stroke="#649088" vector-effect="non-scaling-stroke" d="
  M 1674.01 483.61
  Q 1673.76 484.19 1673.48 484.48
  Q 1610.22 548.03 1546.45 611.63"
/>
<path stroke="#649088" vector-effect="non-scaling-stroke" d="
  M 1832.02 635.25
  L 1831.96 897.25"
/>
<path stroke="#85a7a1" vector-effect="non-scaling-stroke" d="
  M 1831.96 897.25
  Q 1830.99 896.51 1828.99 894.51
  Q 1776.37 841.64 1685.45 751.05
  Q 1684.30 749.91 1684.50 749.29"
/>
<path stroke="#508379" vector-effect="non-scaling-stroke" d="
  M 1832.04 898.00
  L 1831.96 897.25"
/>
</g>
<path fill="#105749" d="
  M 0.00 0.00
  L 1084.31 0.00
  L 1082.03 0.38
  Q 1081.61 0.45 1082.01 0.57
  Q 1083.22 0.93 1084.44 1.24
  Q 1431.24 90.28 1778.01 179.48
  Q 1781.16 180.29 1784.25 181.29
  L 1784.25 181.64
  A 0.87 0.85 68.0 0 1 1784.00 182.25
  L 1573.75 392.71
  L 1451.08 515.31
  A 0.95 0.94 -45.2 0 0 1451.08 516.64
  L 1546.45 611.63
  C 1545.88 612.22 1545.35 613.16 1544.78 613.73
  Q 1505.03 652.72 1466.15 692.57
  Q 1465.80 692.93 1466.16 692.58
  Q 1505.91 654.10 1544.61 614.56
  C 1545.30 613.87 1546.48 613.25 1547.25 612.46
  Q 1615.17 681.33 1684.00 749.29
  Q 1683.92 749.86 1683.52 750.27
  Q 1656.38 777.49 1629.42 804.46
  A 0.76 0.76 0.0 0 0 1629.42 805.54
  L 1831.59 1007.72
  Q 1832.01 1008.14 1832.01 1007.55
  L 1832.04 898.00
  C 1833.14 897.90 1910.34 975.83 1918.06 983.48
  Q 1918.49 983.91 1918.49 983.30
  L 1918.46 734.00
  Q 1918.45 475.53 1918.59 217.06
  Q 1918.59 216.43 1918.75 215.79
  L 1920.00 215.81
  L 1920.00 1080.00
  L 1671.80 1080.12
  Q 1699.41 1054.39 1725.63 1027.52
  A 0.91 0.91 0.0 0 0 1725.62 1026.24
  L 1690.45 991.14
  Q 1689.75 990.44 1689.75 991.43
  L 1689.75 1059.83
  Q 1689.75 1061.81 1688.35 1063.21
  L 1671.44 1080.00
  L 935.19 1080.00
  L 936.27 1079.65
  Q 936.75 1079.50 936.26 1079.38
  L 0.00 838.69
  L 0.00 0.00
  Z
  M 1413.25 857.54
  Q 1458.60 903.55 1504.44 949.06
  Q 1505.44 950.06 1506.25 951.71
  L 1505.87 952.40
  Q 1505.63 952.83 1505.63 953.33
  Q 1505.38 1008.34 1505.54 1063.34
  C 1505.54 1064.04 1505.90 1064.98 1505.82 1065.69
  Q 1505.73 1066.62 1506.38 1065.96
  L 1564.06 1008.62
  L 1581.16 1025.71
  A 0.47 0.46 40.1 0 0 1581.86 1025.66
  C 1582.19 1025.21 1581.94 1024.35 1581.49 1023.93
  Q 1572.95 1015.86 1564.96 1007.25
  L 1636.27 936.05
  A 0.44 0.44 0.0 0 0 1636.27 935.43
  L 1506.19 805.39
  Q 1505.70 804.91 1505.74 805.59
  C 1505.89 808.24 1505.49 811.15 1505.50 813.46
  Q 1505.52 880.38 1505.48 947.31
  A 0.19 0.19 0.0 0 1 1505.37 947.48
  L 1505.25 947.54
  Q 1461.87 904.40 1418.57 861.18
  Q 1416.75 859.35 1415.00 857.46
  C 1412.37 854.04 1413.46 851.48 1413.47 847.74
  Q 1413.66 798.55 1413.27 749.64
  Q 1413.26 748.86 1412.71 749.41
  L 1359.16 802.97
  A 0.69 0.69 0.0 0 0 1359.16 803.95
  Q 1383.63 828.53 1408.32 853.18
  Q 1409.86 854.72 1413.25 857.54
  Z"
/>
<path fill="#99b4af" d="
  M 1084.31 0.00
  L 1920.00 0.00
  L 1920.00 215.81
  L 1918.75 215.79
  L 1784.25 181.29
  Q 1781.16 180.29 1778.01 179.48
  Q 1431.24 90.28 1084.44 1.24
  Q 1083.22 0.93 1082.01 0.57
  Q 1081.61 0.45 1082.03 0.38
  L 1084.31 0.00
  Z"
/>
<path fill="#2f6c60" d="
  M 1784.25 181.29
  L 1918.75 215.79
  Q 1918.59 216.43 1918.59 217.06
  Q 1918.45 475.53 1918.46 734.00
  Q 1918.30 734.09 1918.25 734.20
  A 0.10 0.10 0.0 0 1 1918.09 734.23
  Q 1908.66 725.57 1899.70 716.43
  C 1878.77 695.07 1857.55 674.00 1836.50 652.75
  Q 1835.28 651.52 1833.96 652.82
  Q 1833.37 653.40 1833.29 652.57
  L 1833.22 651.73
  Q 1833.19 651.39 1833.09 651.71
  L 1833.02 651.97
  Q 1832.77 652.80 1832.74 651.93
  L 1832.02 635.25
  L 1832.00 602.75
  Q 1832.00 601.84 1831.36 602.48
  L 1684.50 749.29
  L 1684.00 749.29
  Q 1615.17 681.33 1547.25 612.46
  C 1547.38 612.28 1547.47 612.02 1547.61 611.88
  Q 1616.47 543.22 1687.88 471.82
  A 0.76 0.76 0.0 0 0 1687.61 470.58
  C 1687.45 470.52 1675.33 482.42 1674.01 483.61
  L 1669.73 485.49
  A 0.69 0.68 56.6 0 1 1668.96 485.33
  Q 1667.58 483.82 1662.71 479.04
  Q 1649.85 466.43 1597.45 413.55
  Q 1589.89 405.93 1582.18 398.44
  C 1579.83 396.15 1577.55 390.72 1573.75 392.71
  L 1784.00 182.25
  A 0.87 0.85 68.0 0 0 1784.25 181.64
  L 1784.25 181.29
  Z"
/>
<path fill="#2f6c60" d="
  M 1674.01 483.61
  Q 1673.76 484.19 1673.48 484.48
  Q 1610.22 548.03 1546.45 611.63
  L 1451.08 516.64
  A 0.95 0.94 -45.2 0 1 1451.08 515.31
  L 1573.75 392.71
  C 1577.55 390.72 1579.83 396.15 1582.18 398.44
  Q 1589.89 405.93 1597.45 413.55
  Q 1649.85 466.43 1662.71 479.04
  Q 1667.58 483.82 1668.96 485.33
  A 0.69 0.68 56.6 0 0 1669.73 485.49
  L 1674.01 483.61
  Z"
/>
<path fill="#99b4af" d="
  M 1547.25 612.46
  C 1546.48 613.25 1545.30 613.87 1544.61 614.56
  Q 1505.91 654.10 1466.16 692.58
  Q 1465.80 692.93 1466.15 692.57
  Q 1505.03 652.72 1544.78 613.73
  C 1545.35 613.16 1545.88 612.22 1546.45 611.63
  Q 1610.22 548.03 1673.48 484.48
  Q 1673.76 484.19 1674.01 483.61
  C 1675.33 482.42 1687.45 470.52 1687.61 470.58
  A 0.76 0.76 0.0 0 1 1687.88 471.82
  Q 1616.47 543.22 1547.61 611.88
  C 1547.47 612.02 1547.38 612.28 1547.25 612.46
  Z"
/>
<path fill="#99b4af" d="
  M 1832.02 635.25
  L 1831.96 897.25
  Q 1830.99 896.51 1828.99 894.51
  Q 1776.37 841.64 1685.45 751.05
  Q 1684.30 749.91 1684.50 749.29
  L 1831.36 602.48
  Q 1832.00 601.84 1832.00 602.75
  L 1832.02 635.25
  Z"
/>
<path fill="#2f6c60" d="
  M 1832.02 635.25
  L 1832.74 651.93
  Q 1832.77 652.80 1833.02 651.97
  L 1833.09 651.71
  Q 1833.19 651.39 1833.22 651.73
  L 1833.29 652.57
  Q 1833.37 653.40 1833.96 652.82
  Q 1835.28 651.52 1836.50 652.75
  C 1857.55 674.00 1878.77 695.07 1899.70 716.43
  Q 1908.66 725.57 1918.09 734.23
  A 0.10 0.10 0.0 0 0 1918.25 734.20
  Q 1918.30 734.09 1918.46 734.00
  L 1918.49 983.30
  Q 1918.49 983.91 1918.06 983.48
  C 1910.34 975.83 1833.14 897.90 1832.04 898.00
  L 1831.96 897.25
  L 1832.02 635.25
  Z"
/>
<path fill="#709a92" d="
  M 1415.00 857.46
  L 1413.25 857.54
  Q 1409.86 854.72 1408.32 853.18
  Q 1383.63 828.53 1359.16 803.95
  A 0.69 0.69 0.0 0 1 1359.16 802.97
  L 1412.71 749.41
  Q 1413.26 748.86 1413.27 749.64
  Q 1413.66 798.55 1413.47 847.74
  C 1413.46 851.48 1412.37 854.04 1415.00 857.46
  Z"
/>
<path fill="#709a92" d="
  M 1684.00 749.29
  L 1684.50 749.29
  Q 1684.30 749.91 1685.45 751.05
  Q 1776.37 841.64 1828.99 894.51
  Q 1830.99 896.51 1831.96 897.25
  L 1832.04 898.00
  L 1832.01 1007.55
  Q 1832.01 1008.14 1831.59 1007.72
  L 1629.42 805.54
  A 0.76 0.76 0.0 0 1 1629.42 804.46
  Q 1656.38 777.49 1683.52 750.27
  Q 1683.92 749.86 1684.00 749.29
  Z"
/>
<path fill="#2f6c60" d="
  M 1564.96 1007.25
  Q 1534.72 977.78 1505.25 947.54
  L 1505.37 947.48
  A 0.19 0.19 0.0 0 0 1505.48 947.31
  Q 1505.52 880.38 1505.50 813.46
  C 1505.49 811.15 1505.89 808.24 1505.74 805.59
  Q 1505.70 804.91 1506.19 805.39
  L 1636.27 935.43
  A 0.44 0.44 0.0 0 1 1636.27 936.05
  L 1564.96 1007.25
  Z"
/>
<path fill="#99b4af" d="
  M 0.00 838.69
  L 936.26 1079.38
  Q 936.75 1079.50 936.27 1079.65
  L 935.19 1080.00
  L 0.00 1080.00
  L 0.00 838.69
  Z"
/>
<path fill="#99b4af" d="
  M 1413.25 857.54
  L 1415.00 857.46
  Q 1416.75 859.35 1418.57 861.18
  Q 1461.87 904.40 1505.25 947.54
  Q 1534.72 977.78 1564.96 1007.25
  Q 1572.95 1015.86 1581.49 1023.93
  C 1581.94 1024.35 1582.19 1025.21 1581.86 1025.66
  A 0.47 0.46 40.1 0 1 1581.16 1025.71
  L 1564.06 1008.62
  Q 1536.12 980.69 1507.78 952.47
  Q 1507.13 951.82 1506.25 951.71
  Q 1505.44 950.06 1504.44 949.06
  Q 1458.60 903.55 1413.25 857.54
  Z"
/>
<path fill="#2f6c60" d="
  M 1506.25 951.71
  Q 1507.13 951.82 1507.78 952.47
  Q 1536.12 980.69 1564.06 1008.62
  L 1506.38 1065.96
  Q 1505.73 1066.62 1505.82 1065.69
  C 1505.90 1064.98 1505.54 1064.04 1505.54 1063.34
  Q 1505.38 1008.34 1505.63 953.33
  Q 1505.63 952.83 1505.87 952.40
  L 1506.25 951.71
  Z"
/>
<path fill="#709a92" d="
  M 1671.80 1080.12
  Q 1671.56 1080.00 1671.44 1080.00
  L 1688.35 1063.21
  Q 1689.75 1061.81 1689.75 1059.83
  L 1689.75 991.43
  Q 1689.75 990.44 1690.45 991.14
  L 1725.62 1026.24
  A 0.91 0.91 0.0 0 1 1725.63 1027.52
  Q 1699.41 1054.39 1671.80 1080.12
  Z"
/>
</svg>
