<?xml version="1.0" encoding="UTF-8" standalone="no"?><svg xmlns="http://www.w3.org/2000/svg" xmlns:xlink="http://www.w3.org/1999/xlink" width="350" zoomAndPan="magnify" viewBox="0 0 262.5 284.999983" height="380" preserveAspectRatio="xMidYMid meet" version="1.0"><defs><clipPath id="36b08f30cb"><path d="M 239 249 L 262 249 L 262 284.726562 L 239 284.726562 Z M 239 249 " clip-rule="nonzero"/></clipPath><clipPath id="b214f4e23f"><path d="M 141 256 L 163 256 L 163 284.726562 L 141 284.726562 Z M 141 256 " clip-rule="nonzero"/></clipPath><clipPath id="0a5a42484f"><path d="M 68.46875 187.949219 L 262 187.949219 L 262 284.726562 L 68.46875 284.726562 Z M 68.46875 187.949219 " clip-rule="nonzero"/></clipPath><clipPath id="9c30c26438"><path d="M 68.46875 251 L 77 251 L 77 265 L 68.46875 265 Z M 68.46875 251 " clip-rule="nonzero"/></clipPath><clipPath id="c38f40abe6"><path d="M 128 242 L 163 242 L 163 284.726562 L 128 284.726562 Z M 128 242 " clip-rule="nonzero"/></clipPath><clipPath id="09d606b4e6"><path d="M 234 193 L 262 193 L 262 284.726562 L 234 284.726562 Z M 234 193 " clip-rule="nonzero"/></clipPath><clipPath id="2b3bf65169"><path d="M 233 207 L 262 207 L 262 284.726562 L 233 284.726562 Z M 233 207 " clip-rule="nonzero"/></clipPath><clipPath id="8026842a96"><path d="M 125 254 L 159 254 L 159 284.726562 L 125 284.726562 Z M 125 254 " clip-rule="nonzero"/></clipPath><clipPath id="90eb75fc30"><path d="M 109 187.949219 L 236 187.949219 L 236 206 L 109 206 Z M 109 187.949219 " clip-rule="nonzero"/></clipPath><clipPath id="1d4fdbced6"><path d="M 181 234 L 202 234 L 202 284.726562 L 181 284.726562 Z M 181 234 " clip-rule="nonzero"/></clipPath><clipPath id="66d58116c5"><path d="M 83 128 L 262 128 L 262 284.726562 L 83 284.726562 Z M 83 128 " clip-rule="nonzero"/></clipPath><clipPath id="5a6cef9e3c"><path d="M 217 212 L 262 212 L 262 245 L 217 245 Z M 217 212 " clip-rule="nonzero"/></clipPath><clipPath id="3360278ce9"><path d="M 217 235 L 262 235 L 262 245 L 217 245 Z M 217 235 " clip-rule="nonzero"/></clipPath><clipPath id="ad6810432b"><path d="M 162 132 L 262 132 L 262 166 L 162 166 Z M 162 132 " clip-rule="nonzero"/></clipPath><clipPath id="78da3c4ece"><path d="M 108 117.832031 L 141 117.832031 L 141 135 L 108 135 Z M 108 117.832031 " clip-rule="nonzero"/></clipPath><clipPath id="8e08fed45b"><path d="M 108 117.832031 L 141 117.832031 L 141 134 L 108 134 Z M 108 117.832031 " clip-rule="nonzero"/></clipPath></defs><g clip-path="url(#36b08f30cb)"><path fill="#c46b66" d="M 263.417969 249.078125 L 261.9375 260.222656 L 257.824219 267.773438 L 253.542969 285.792969 L 250.730469 290.878906 L 250.578125 296.113281 L 245.960938 298.75 L 239.386719 298.414062 L 248.605469 277.101562 L 254.859375 253.828125 Z M 263.417969 249.078125 " fill-opacity="1" fill-rule="nonzero"/></g><g clip-path="url(#b214f4e23f)"><path fill="#c46b66" d="M 162.671875 266.128906 L 158.878906 272.015625 L 157.414062 273.828125 L 154.769531 299.066406 L 152.796875 301.535156 L 146.542969 302.1875 L 141.117188 302.1875 L 141.269531 300.058594 L 146.882812 295.796875 L 146.710938 291.046875 L 144.234375 273.007812 L 152.476562 256.949219 Z M 162.671875 266.128906 " fill-opacity="1" fill-rule="nonzero"/></g><path fill="#c46b66" d="M 104.902344 212.363281 L 98.480469 208.753906 L 93.878906 203.6875 L 79.046875 200.566406 L 79.21875 204.007812 L 84.980469 208.101562 L 94.367188 224.664062 Z M 104.902344 212.363281 " fill-opacity="1" fill-rule="nonzero"/><g clip-path="url(#0a5a42484f)"><path fill="#dd857c" d="M 115.097656 199.695312 L 107.210938 207.730469 L 99.792969 214.125 L 89.09375 222.515625 L 86.953125 228.742188 L 85.804688 235.453125 L 78.898438 242.667969 L 73.300781 247.585938 L 70.167969 251.714844 L 68.363281 252.367188 L 68.851562 254.347656 L 76.925781 267.285156 L 78.238281 266.144531 L 78.726562 265.003906 L 87.15625 265.808594 L 92.429688 267.789062 L 100.972656 269.46875 L 112.769531 265.707031 L 123.507812 261.78125 L 126.238281 263.828125 L 128.039062 268.257812 L 127.449219 271.851562 L 129.253906 283.160156 L 127.566406 294.621094 C 126.964844 295.4375 126.46875 296.316406 126.085938 297.253906 C 126.085938 297.742188 124.398438 302.992188 124.398438 302.992188 L 118.804688 309.21875 L 119.96875 311.015625 L 129.605469 309.554688 L 134.664062 307.757812 L 133.835938 304.804688 L 136.636719 299.402344 L 138.035156 294.636719 L 142.753906 281.699219 L 146.121094 278.34375 L 150.890625 270.472656 L 153.859375 263.914062 L 167.121094 270.171875 L 178.917969 275.207031 L 192.300781 275.207031 L 198.703125 272.6875 L 213.027344 268.257812 L 221.589844 264.316406 L 225.667969 270.171875 L 227.035156 273.527344 L 226.207031 281.734375 L 228.179688 284.03125 L 232.964844 290.308594 L 232.460938 294.90625 L 231.972656 302.273438 L 226.914062 308.179688 L 226.914062 309.320312 L 239.757812 309.976562 L 239.4375 307.523438 L 241.410156 304.90625 L 240.835938 299.554688 L 242.808594 292.84375 L 250.375 276.617188 L 253.207031 265.136719 L 257.824219 257.601562 L 266.117188 248.761719 L 268.257812 234.011719 L 271.625 220.402344 L 264.546875 207.949219 L 249.566406 198.117188 L 221.4375 187.949219 L 195.332031 188.601562 L 183.738281 188.285156 L 167.949219 192.378906 L 133.703125 192.378906 Z M 115.097656 199.695312 " fill-opacity="1" fill-rule="nonzero"/></g><path fill="#f9a4a0" d="M 104.730469 231.375 L 107.210938 233.339844 L 111.320312 228.589844 L 110.832031 225.316406 L 102.101562 215.804688 L 89.09375 209.914062 L 86.953125 210.230469 L 87.945312 214.496094 L 89.75 220.71875 L 93.375 229.09375 L 98.144531 229.246094 Z M 104.730469 231.375 " fill-opacity="1" fill-rule="nonzero"/><path fill="#ad5b59" d="M 81.695312 260.390625 L 86.632812 260.070312 L 89.75 259.398438 L 91.082031 257.921875 L 92.394531 256.78125 L 93.054688 258.089844 L 92.058594 259.734375 L 89.261719 261.210938 L 86.953125 261.210938 L 83.175781 261.53125 L 81.695312 263.257812 L 84.15625 263.257812 L 89.597656 263.746094 L 100.703125 262.03125 L 114.035156 258.828125 L 120.945312 249.984375 L 124.652344 236.710938 L 124.90625 246.78125 L 126.625 252.6875 L 126.371094 257.855469 L 127.855469 263.257812 L 127.636719 267.101562 L 126.304688 263.828125 L 123.507812 261.699219 L 112.804688 265.640625 L 100.957031 269.398438 L 92.394531 267.773438 L 87.121094 265.792969 L 78.726562 264.988281 L 78.238281 266.128906 L 76.925781 267.269531 L 75.609375 265.1875 L 78.558594 261.699219 Z M 81.695312 260.390625 " fill-opacity="1" fill-rule="nonzero"/><path fill="#c46b66" d="M 217.984375 249.480469 L 211.816406 246.042969 L 207.113281 238.925781 L 209.589844 228.355469 L 209.589844 223.421875 L 210.570312 222.933594 L 210.570312 229.816406 L 212.304688 237.683594 L 218.726562 245.554688 L 220.695312 248.507812 Z M 217.984375 249.480469 " fill-opacity="1" fill-rule="nonzero"/><g clip-path="url(#9c30c26438)"><path fill="#f9a4a0" d="M 72.558594 256.378906 L 74.785156 258.828125 L 76.992188 260.554688 L 76.503906 262.269531 L 75.136719 264.414062 L 68.851562 254.332031 L 68.363281 252.351562 L 69.847656 251.8125 Z M 72.558594 256.378906 " fill-opacity="1" fill-rule="nonzero"/></g><path fill="#c46b66" d="M 87.863281 238.421875 L 89.34375 239.664062 L 91.824219 241.125 L 95.261719 239.898438 L 97.25 235.46875 L 96.742188 232.535156 L 89.835938 232.535156 L 87.863281 234.75 Z M 87.863281 238.421875 " fill-opacity="1" fill-rule="nonzero"/><path fill="#c46b66" d="M 91.316406 214.089844 L 97.992188 217.28125 L 102.675781 220.972656 L 105.894531 227.851562 L 107.328125 233.203125 L 107.210938 233.339844 L 104.730469 231.375 L 98.144531 229.246094 L 94.957031 229.144531 L 91.824219 223.671875 L 90.085938 217.28125 L 88.855469 212.128906 Z M 91.316406 214.089844 " fill-opacity="1" fill-rule="nonzero"/><path fill="#c46b66" d="M 217.730469 248.507812 L 206.136719 251.863281 L 191.558594 254.078125 L 173.289062 253.59375 L 158.964844 249.902344 L 160.210938 259.484375 C 160.210938 259.484375 183.90625 267.101562 184.648438 267.101562 C 185.390625 267.101562 204.398438 266.128906 205.140625 265.625 L 218.472656 256.78125 L 220.445312 251.949219 L 220.695312 248.59375 Z M 217.730469 248.507812 " fill-opacity="1" fill-rule="nonzero"/><g clip-path="url(#c38f40abe6)"><path fill="#c46b66" d="M 154.769531 242.851562 L 155.019531 250.21875 L 148.113281 260.554688 L 140.460938 270.390625 L 135.015625 282.4375 L 131.816406 291.28125 L 128.847656 303.816406 L 131.5625 305.542969 L 133.535156 300.375 L 138.488281 288.832031 L 140.207031 281.933594 L 144.65625 276.78125 L 149.59375 269.652344 L 152.308594 263.746094 L 156.25 259.316406 L 162.183594 256.613281 L 160.699219 247.769531 Z M 154.769531 242.851562 " fill-opacity="1" fill-rule="nonzero"/></g><g clip-path="url(#09d606b4e6)"><path fill="#c46b66" d="M 237.703125 193.820312 L 249.582031 198.117188 L 264.566406 207.949219 L 267.75 213.554688 L 267.363281 224.175781 L 264.648438 239.160156 L 257.976562 252.6875 L 254.519531 260.304688 L 250.578125 268.660156 L 244.644531 279 L 241.679688 290.792969 L 239.960938 299.890625 L 239.707031 305.058594 L 234.28125 303.078125 L 236 297.675781 L 235.761719 283.914062 L 236.253906 271.867188 L 245.386719 261.78125 L 256.003906 240.636719 L 258.96875 221.222656 L 253.289062 203.773438 Z M 237.703125 193.820312 " fill-opacity="1" fill-rule="nonzero"/></g><g clip-path="url(#2b3bf65169)"><path fill="#ad5b59" d="M 264.566406 207.949219 L 271.644531 220.402344 L 268.1875 234.011719 L 266.046875 248.761719 L 257.808594 257.601562 L 253.207031 265.136719 L 250.410156 276.617188 L 242.839844 292.84375 L 240.871094 299.554688 L 241.359375 304.972656 L 239.386719 307.59375 L 239.707031 310.058594 L 239.300781 310.023438 L 236.742188 305.78125 L 233.285156 303.328125 L 234.28125 302.339844 L 238.222656 304.066406 L 238.730469 301.113281 L 239.472656 294.488281 L 241.191406 285.878906 L 240.195312 281.195312 L 241.441406 277.519531 L 245.640625 272.351562 L 247.609375 268.660156 L 247.359375 265.960938 L 250.828125 261.78125 L 253.289062 259.316406 L 258.71875 247.519531 L 261.9375 238.675781 L 266.132812 224.410156 Z M 264.566406 207.949219 " fill-opacity="1" fill-rule="nonzero"/></g><path fill="#ad5b59" d="M 161.191406 246.042969 L 163.179688 252.199219 L 166.632812 256.125 L 174.773438 259.816406 L 186.875 261.292969 L 201.199219 259.566406 L 211.074219 255.152344 L 217.242188 252.433594 L 220.695312 251.210938 L 219.957031 255.386719 L 219.957031 258.339844 L 221.304688 264.464844 L 213.046875 268.257812 L 198.722656 272.6875 L 192.300781 275.136719 L 178.96875 275.304688 L 167.121094 270.222656 L 154.128906 263.996094 L 154.769531 262.269531 L 157.988281 257.601562 L 158.222656 248.996094 L 154.769531 242.851562 L 152.054688 235.234375 L 156.015625 241.863281 Z M 161.191406 246.042969 " fill-opacity="1" fill-rule="nonzero"/><g clip-path="url(#8026842a96)"><path fill="#ad5b59" d="M 129.589844 309.554688 L 126.574219 310.023438 L 130.332031 306.28125 L 125.648438 304.066406 L 126.136719 302.84375 L 131.5625 303.816406 L 132.554688 298.898438 L 135.523438 290.792969 L 137.242188 283.664062 L 141.945312 278.746094 L 148.851562 268.914062 L 153.539062 259.078125 L 158.730469 254.648438 L 157.144531 265.441406 L 153.792969 263.828125 L 150.824219 270.390625 L 146.054688 278.261719 L 142.753906 281.699219 L 137.984375 294.636719 L 136.667969 299.402344 L 133.871094 304.804688 L 134.695312 307.757812 Z M 129.589844 309.554688 " fill-opacity="1" fill-rule="nonzero"/></g><path fill="#ad5b59" d="M 88.605469 236.710938 L 90.339844 235.46875 L 94.535156 235.46875 L 96.253906 234.984375 L 95.023438 237.199219 L 89.597656 237.199219 Z M 88.605469 236.710938 " fill-opacity="1" fill-rule="nonzero"/><g clip-path="url(#90eb75fc30)"><path fill="#f9a4a0" d="M 109.671875 205.265625 L 115.097656 199.695312 L 133.636719 192.328125 L 167.949219 192.328125 L 183.738281 188.285156 L 195.332031 188.601562 L 221.4375 187.949219 L 235.78125 193.148438 L 223.125 191.722656 L 209.539062 190.734375 L 191.273438 190.480469 L 181.160156 191.472656 L 167.578125 195.648438 L 154.246094 195.648438 L 138.691406 193.433594 C 138.691406 193.433594 130.785156 194.910156 130.046875 195.113281 C 129.304688 195.316406 117.808594 200.316406 117.808594 200.316406 L 110.582031 204.726562 Z M 109.671875 205.265625 " fill-opacity="1" fill-rule="nonzero"/></g><g clip-path="url(#1d4fdbced6)"><path fill="#ceb197" d="M 181.835938 234.503906 L 185.0625 258.027344 L 188.527344 266.09375 L 191.996094 286.390625 L 193.148438 289.15625 L 188.527344 291.691406 L 183.921875 299.0625 L 188.304688 301.148438 L 193.832031 300.675781 L 197.757812 299.996094 L 201.90625 291.453125 L 199.832031 287.070312 L 199.371094 268.625 L 199.609375 239.34375 Z M 181.835938 234.503906 " fill-opacity="1" fill-rule="nonzero"/></g><g clip-path="url(#66d58116c5)"><path fill="#ddc4ab" d="M 141.691406 131.199219 L 130.851562 128.210938 L 107.328125 142.730469 L 106.855469 144.804688 L 89.316406 156.113281 L 83.09375 158.410156 L 83.09375 161.636719 L 85.167969 170.859375 L 88.398438 174.78125 L 92.78125 174.546875 L 94.855469 177.09375 L 106.632812 177.09375 L 119.546875 174.546875 L 123.011719 177.550781 L 128.316406 186.316406 L 140.773438 194.382812 L 157.839844 205.914062 L 167.539062 224.820312 L 176.070312 238.882812 L 184.144531 242.570312 L 195.222656 247.1875 L 196.378906 256.410156 L 199.609375 260.792969 L 201.683594 282.46875 L 199.609375 296.070312 L 196.601562 298.382812 L 193.371094 308.523438 L 196.140625 308.980469 L 196.601562 311.289062 L 210.214844 308.523438 L 210.214844 298.839844 L 212.289062 296.53125 L 213.207031 293.304688 L 215.753906 292.386719 L 212.289062 268.863281 L 214.140625 259.402344 L 217.828125 244.65625 L 247.824219 243.960938 L 279.65625 238.660156 L 294.421875 240.273438 L 324.417969 229.203125 L 327.1875 230.816406 L 338.265625 255.257812 L 339.882812 258.722656 L 340.339844 264.480469 L 342.414062 289.15625 L 338.265625 292.386719 L 336.875 295.375 L 331.113281 303.445312 L 331.808594 305.292969 L 347.257812 305.292969 L 350.25 299.535156 L 351.183594 295.375 L 356.25 290.996094 L 356.027344 286.847656 L 355.109375 264.9375 L 363.183594 254.796875 L 362.027344 246.492188 L 359.480469 237.046875 L 371.476562 185.160156 L 372.171875 168.09375 L 354.414062 149.882812 L 331.570312 141.117188 L 319.335938 141.117188 L 308.730469 143.886719 L 270.664062 140.660156 L 245.972656 142.273438 L 235.367188 140.199219 L 215.515625 133.96875 L 208.363281 132.589844 L 190.839844 137.433594 L 175.152344 139.964844 L 157.839844 138.585938 L 153.230469 137.65625 Z M 141.691406 131.199219 " fill-opacity="1" fill-rule="nonzero"/></g><path fill="#594b40" d="M 86.433594 162.332031 L 90.25 161.289062 L 92.671875 162.332031 L 90.597656 163.027344 L 89.203125 164.40625 Z M 86.433594 162.332031 " fill-opacity="1" fill-rule="nonzero"/><path fill="#ceb197" d="M 184.144531 242.570312 L 194.847656 247.035156 L 195.097656 235.65625 L 191.648438 216.292969 L 188.527344 213.871094 L 188.179688 215.25 L 190.253906 218.019531 L 190.949219 229.089844 L 185.0625 226.324219 L 178.492188 211.105469 L 160.496094 193.117188 L 151.851562 187.234375 L 145.269531 177.550781 L 148.734375 173.058594 L 152.882812 163.027344 L 151.15625 161.289062 L 143.542969 168.898438 L 130.738281 170.636719 L 117.585938 168.21875 L 108.789062 170.652344 L 108.703125 170.402344 L 102.46875 170.402344 L 100.171875 173.058594 L 96.816406 174.085938 L 92.796875 174.558594 L 94.855469 177.09375 L 106.632812 177.09375 L 119.546875 174.546875 L 123.011719 177.550781 L 128.316406 186.316406 L 140.773438 194.382812 L 157.839844 205.914062 L 167.539062 224.820312 L 176.070312 238.882812 Z M 184.144531 242.570312 " fill-opacity="1" fill-rule="nonzero"/><path fill="#594b40" d="M 205.605469 219.285156 L 202.363281 221.132812 L 202.363281 229.4375 L 206.289062 234.738281 L 208.835938 233.347656 L 211.828125 225.058594 L 208.835938 220.898438 Z M 205.605469 219.285156 " fill-opacity="1" fill-rule="nonzero"/><path fill="#594b40" d="M 249.898438 164.183594 L 245.75 166.476562 L 245.511719 170.859375 L 247.128906 172.710938 L 247.824219 177.09375 L 250.59375 181.238281 L 254.976562 180.082031 L 259.363281 173.863281 L 255.660156 167.171875 Z M 249.898438 164.183594 " fill-opacity="1" fill-rule="nonzero"/><g clip-path="url(#5a6cef9e3c)"><path fill="#ceb197" d="M 324.417969 229.203125 L 326.824219 230.605469 L 323.152344 226.671875 L 316.566406 224.582031 L 294.421875 227.699219 L 270.550781 231.164062 L 251.511719 233.238281 L 233.515625 229.4375 L 226.25 226.671875 L 226.597656 220.4375 L 226.945312 214.902344 L 224.175781 212.828125 L 222.78125 217.324219 L 221.40625 220.089844 L 221.058594 231.164062 L 218.984375 240.148438 L 217.855469 244.65625 L 247.824219 243.960938 L 279.65625 238.660156 L 294.421875 240.273438 Z M 324.417969 229.203125 " fill-opacity="1" fill-rule="nonzero"/></g><g clip-path="url(#3360278ce9)"><path fill="#bc9a7e" d="M 299.960938 235.308594 L 283.007812 236.699219 C 283.007812 236.699219 254.296875 239.46875 252.902344 239.800781 C 251.511719 240.136719 229.367188 239.800781 229.367188 239.800781 C 229.367188 239.800781 223.535156 240.46875 218.800781 240.902344 L 217.828125 244.65625 L 247.824219 243.960938 L 279.65625 238.660156 L 294.421875 240.246094 L 306.476562 235.796875 Z M 299.960938 235.308594 " fill-opacity="1" fill-rule="nonzero"/></g><path fill="#bc9a7e" d="M 195.097656 239.289062 C 187.527344 238.355469 184.382812 238.078125 184.382812 238.078125 L 172.605469 228.339844 L 163.515625 216.933594 L 167.539062 224.765625 L 176.070312 238.855469 L 184.144531 242.542969 L 195.28125 247.160156 Z M 195.097656 239.289062 " fill-opacity="1" fill-rule="nonzero"/><g clip-path="url(#ad6810432b)"><path fill="#efd3b9" d="M 354.414062 149.882812 L 331.570312 141.117188 L 319.335938 141.117188 L 308.730469 143.886719 L 270.664062 140.660156 L 245.972656 142.273438 L 235.367188 140.199219 L 215.515625 133.96875 L 208.363281 132.589844 L 190.839844 137.433594 L 175.152344 139.964844 L 162.625 138.960938 L 166.84375 141.117188 L 176.769531 142.96875 L 197.992188 140.421875 L 211.132812 138.585938 L 235.367188 146.417969 L 267.199219 151.039062 L 290.039062 149.644531 L 320.492188 148.726562 L 341.957031 150.800781 L 354.414062 153.804688 L 364.796875 163.488281 L 369.167969 165.003906 Z M 354.414062 149.882812 " fill-opacity="1" fill-rule="nonzero"/></g><path fill="#594b40" d="M 252.667969 222.289062 C 252.667969 221.59375 248.28125 206.832031 248.28125 206.832031 L 251.972656 197.609375 C 251.972656 197.609375 250.355469 193.230469 249.660156 192.769531 C 248.964844 192.3125 239.75 185.160156 239.75 185.160156 L 236.519531 177.316406 L 239.054688 166.714844 L 250.1875 144.804688 L 249.269531 142.023438 L 246.027344 142.230469 L 235.421875 140.160156 L 215.515625 133.96875 L 208.363281 132.578125 L 198.4375 135.359375 L 197.296875 137.917969 L 200.984375 145.765625 L 206.75 158.898438 L 206.75 161.902344 L 206.972656 169.707031 L 205.578125 177.316406 L 202.574219 174.78125 L 197.992188 174.78125 L 196.839844 172.25 L 194.765625 167.410156 L 191.0625 168.09375 L 186.21875 160.484375 L 181.152344 147.351562 L 176.070312 142.035156 L 174.957031 139.949219 L 167.859375 139.378906 L 168.292969 141.117188 L 167.832031 144.347656 L 159.757812 142.953125 L 156.292969 141.105469 L 156.292969 138.324219 L 153.300781 137.710938 L 141.691406 131.199219 L 136.25 129.699219 L 129.929688 134.425781 L 123.933594 137.433594 L 118.628906 140.214844 L 115.398438 144.597656 L 109.402344 146.65625 L 101.789062 155.640625 L 96.929688 159.34375 L 97.167969 163.515625 L 102.929688 169.511719 L 103.75 177.121094 L 106.632812 177.121094 L 119.546875 174.589844 L 123.011719 177.578125 L 125.101562 181.027344 L 133.453125 179.429688 L 142 177.34375 L 151.449219 169.734375 L 155.832031 166.742188 L 158.253906 167.632812 L 158.769531 173.476562 L 160.84375 179.695312 L 159.648438 186.316406 L 153.691406 193.925781 L 147.707031 199.070312 L 154.972656 203.96875 L 159.925781 200.617188 L 166.148438 206.179688 L 175.140625 216.335938 L 180.21875 220.714844 L 187.832031 222.332031 L 191.757812 219.101562 C 191.757812 219.101562 197.757812 212.648438 198.453125 211.953125 C 199.148438 211.257812 212.066406 207.335938 212.066406 207.335938 L 221.292969 215.679688 L 224.523438 223.289062 L 229.824219 229.050781 L 239.972656 233.667969 L 248.519531 229.746094 C 248.519531 229.746094 252.667969 222.96875 252.667969 222.289062 Z M 252.667969 222.289062 " fill-opacity="1" fill-rule="nonzero"/><path fill="#3f342c" d="M 180.21875 220.675781 L 182.878906 221.230469 L 178.492188 211.105469 L 160.496094 193.117188 L 156.472656 190.390625 L 153.691406 193.925781 L 147.707031 199.070312 L 154.972656 203.96875 L 159.925781 200.617188 L 166.148438 206.136719 L 175.152344 216.292969 Z M 180.21875 220.675781 " fill-opacity="1" fill-rule="nonzero"/><path fill="#3f342c" d="M 133.382812 179.402344 L 141.929688 177.328125 L 149.488281 171.25 L 152.882812 163.027344 L 151.15625 161.289062 L 143.542969 168.898438 L 130.738281 170.636719 L 117.585938 168.21875 L 108.789062 170.652344 L 108.703125 170.402344 L 103.039062 170.402344 L 103.765625 177.09375 L 106.632812 177.09375 L 119.546875 174.546875 L 123.011719 177.550781 L 125.101562 181 Z M 133.382812 179.402344 " fill-opacity="1" fill-rule="nonzero"/><path fill="#3f342c" d="M 191.660156 216.292969 L 188.527344 213.816406 L 188.179688 215.207031 L 190.269531 217.988281 L 190.40625 220.144531 L 191.800781 219.035156 L 192.121094 218.6875 Z M 191.660156 216.292969 " fill-opacity="1" fill-rule="nonzero"/><path fill="#3f342c" d="M 112.851562 148.03125 L 116.542969 146.417969 L 120.925781 141.117188 L 126.703125 142.273438 L 129.234375 143.886719 L 136.847656 140.199219 L 139.617188 139.046875 L 140.773438 141.117188 L 132.003906 145.722656 L 127.160156 147.113281 L 123.472656 149.421875 L 111.476562 149.421875 L 110.082031 148.503906 Z M 112.851562 148.03125 " fill-opacity="1" fill-rule="nonzero"/><path fill="#191411" d="M 121.398438 143.191406 L 126.464844 144.582031 L 125.085938 146.417969 L 122.316406 147.574219 L 119.769531 146.878906 L 120.703125 145.042969 L 120.242188 143.191406 Z M 121.398438 143.191406 " fill-opacity="1" fill-rule="nonzero"/><path fill="#3f342c" d="M 222.78125 217.324219 L 222.378906 218.15625 L 224.523438 223.207031 L 226.332031 225.183594 L 226.597656 220.4375 L 226.945312 214.902344 L 224.175781 212.828125 Z M 222.78125 217.324219 " fill-opacity="1" fill-rule="nonzero"/><path fill="#3f342c" d="M 233.515625 229.4375 L 228.488281 227.519531 L 229.824219 228.964844 L 239.972656 233.585938 L 244.132812 231.679688 Z M 233.515625 229.4375 " fill-opacity="1" fill-rule="nonzero"/><path fill="#726156" d="M 197.296875 137.890625 L 198.453125 140.355469 L 211.132812 138.585938 L 235.367188 146.417969 L 248.367188 148.3125 L 250.132812 144.804688 L 249.214844 142.066406 L 245.972656 142.273438 L 235.367188 140.199219 L 215.515625 133.96875 L 208.363281 132.589844 L 198.4375 135.332031 Z M 197.296875 137.890625 " fill-opacity="1" fill-rule="nonzero"/><path fill="#726156" d="M 176.769531 142.96875 L 176.933594 142.941406 L 176.070312 142.035156 L 174.875 139.949219 L 172.496094 139.753906 L 167.789062 139.378906 L 168.222656 141.117188 L 168.195312 141.367188 Z M 176.769531 142.96875 " fill-opacity="1" fill-rule="nonzero"/><g clip-path="url(#78da3c4ece)"><path fill="#b28056" d="M 132.378906 134.484375 L 129.472656 128.667969 L 124.851562 127.75 L 116.554688 128.90625 L 111.476562 128.90625 L 108.007812 123.367188 L 108.246094 117.832031 L 111.933594 122.4375 L 120.007812 124.523438 L 129.929688 121.519531 L 137.308594 123.589844 L 140.3125 128.90625 L 140.3125 133.285156 Z M 132.378906 134.484375 " fill-opacity="1" fill-rule="nonzero"/></g><g clip-path="url(#8e08fed45b)"><path fill="#e0b882" d="M 140.3125 132.980469 L 140.3125 128.90625 L 137.308594 123.589844 L 129.929688 121.519531 L 120.007812 124.523438 L 111.933594 122.4375 L 108.246094 117.832031 L 108.203125 118.695312 L 111.699219 124.285156 L 116.777344 125.441406 L 129 125.898438 L 134.539062 130.742188 L 136.488281 133.855469 L 139.1875 133.453125 Z M 140.3125 132.980469 " fill-opacity="1" fill-rule="nonzero"/></g><path fill="#594b40" d="M 133.621094 137.65625 L 138.003906 133.050781 L 141.691406 127.515625 L 152.996094 123.589844 L 155.082031 126.597656 L 155.304688 130.28125 L 144.699219 136.515625 L 139.855469 140.199219 Z M 133.621094 137.65625 " fill-opacity="1" fill-rule="nonzero"/><path fill="#3f342c" d="M 138.269531 136.390625 L 140.3125 133.285156 L 144.699219 129.128906 L 150.460938 126.816406 L 153.691406 127.972656 L 152.535156 130.519531 L 147.453125 133.285156 L 142.929688 134.398438 Z M 138.269531 136.390625 " fill-opacity="1" fill-rule="nonzero"/></svg>